<svg xmlns="http://www.w3.org/2000/svg" width="215" height="110" viewBox="0 0 430 220" fill="none">
  <defs>
    <filter id="a" x="-30%" y="-30%" width="160%" height="160%">
      <feDropShadow dx="0" dy="8" stdDeviation="9" flood-color="#9db7ea" flood-opacity=".14"/>
    </filter>
  </defs>
  <g transform="rotate(-4 472.908 -210.363)" filter="url(#a)">
    <rect width="124" height="124" rx="22" stroke="#b9ceff" stroke-width="2"/>
    <path d="M52 45 31 62l21 17m20-34 21 17-21 17" stroke="#0d3990" stroke-width="8" stroke-linecap="round" stroke-linejoin="round"/>
    <path d="M67 39 57 85" stroke="#0a317d" stroke-width="7" stroke-linecap="round"/>
  </g>
  <g transform="rotate(5 -644.632 2272.858)" filter="url(#a)">
    <rect width="124" height="124" rx="22" stroke="#b9ceff" stroke-width="2"/>
    <ellipse cx="62" cy="65" rx="22" ry="31" fill="#0d3990"/>
    <path d="M62 34v62"/>
    <path d="m43 51-15-8m13 21-17-2m19 16-14 6m52-33 15-8M83 64l17-2M81 78l14 6" stroke="#0d3990" stroke-width="6" stroke-linecap="round"/>
    <circle cx="55" cy="53" r="3"/>
    <circle cx="69" cy="53" r="3"/>
    <path d="m53 34-6-9m24 9 6-9" stroke="#0d3990" stroke-width="5" stroke-linecap="round"/>
  </g>
  <path d="M130 150c25 25 46 32 70 30" stroke="#b9ceff" stroke-width="2.5" stroke-linecap="round" stroke-dasharray="5 10"/>
  <path d="m12 43-8-9m0 27-12-2m342-6 9-9m-5 26 13-2" stroke="#8eaef5" stroke-width="4" stroke-linecap="round"/>
</svg>
